<?xml version="1.0" encoding="utf-8"?>
<!-- Generator: Adobe Illustrator 28.1.0, SVG Export Plug-In . SVG Version: 6.00 Build 0)  -->
<svg version="1.1" id="Calque_1" xmlns:serif="http://www.serif.com/"
	 xmlns="http://www.w3.org/2000/svg" xmlns:xlink="http://www.w3.org/1999/xlink" x="0px" y="0px" viewBox="0 0 1275 129.9"
	 style="enable-background:new 0 0 1275 129.9;" xml:space="preserve">
<style type="text/css">
	.st0{fill:#FFFCEC;}
</style>
<path class="st0" d="M1275,104.5v25.4H0v-29.8c106.2,0,106.2-100,212.5-100s106.2,100,212.5,100c51.5,0,78-23.5,103.7-47.7l5-4.7
	C559.5,23.5,586,0,637.4,0c51.5,0,78,23.5,103.7,47.7l5,4.7c25.8,24.2,52.3,47.7,103.7,47.7h1.2c105-0.8,105.4-100,211.2-100
	c106.3,0,106.3,100,212.5,100v4.4L1275,104.5L1275,104.5z"/>
</svg>
